<?xml version="1.0" encoding="utf-8"?>
<!-- Generator: Adobe Illustrator 28.0.0, SVG Export Plug-In . SVG Version: 6.00 Build 0)  -->
<svg version="1.1" id="Camada_1" xmlns="http://www.w3.org/2000/svg" xmlns:xlink="http://www.w3.org/1999/xlink" x="0px" y="0px"
	 viewBox="0 0 354 94.8" style="enable-background:new 0 0 354 94.8;" xml:space="preserve">
<style type="text/css">
	
		.st0{fill:url(#SVGID_1_);stroke:url(#SVGID_00000013168793196716216020000002657216681520005301_);stroke-width:2;stroke-miterlimit:10;}
	
		.st1{fill:url(#SVGID_00000150784498226199174000000014159961493297707705_);stroke:url(#SVGID_00000057849704686225059610000015457617077777469568_);stroke-width:2;stroke-miterlimit:10;}
	
		.st2{fill:url(#SVGID_00000071518777295769934770000004200722016632337031_);stroke:url(#SVGID_00000057831141141301761490000008914112655847347380_);stroke-width:2;stroke-miterlimit:10;}
	
		.st3{fill:url(#SVGID_00000054972809632666519400000008758235042112188817_);stroke:url(#SVGID_00000067221283308686913500000000010634158877447339_);stroke-width:2;stroke-miterlimit:10;}
	
		.st4{fill:url(#SVGID_00000065057509339521198990000011278168305484067505_);stroke:url(#SVGID_00000130618805903227250760000016644471908106539660_);stroke-width:2;stroke-miterlimit:10;}
	
		.st5{fill:url(#SVGID_00000087375387752992700200000013478781572055684028_);stroke:url(#SVGID_00000060739054143395559380000010434017234219765425_);stroke-width:2;stroke-miterlimit:10;}
	
		.st6{fill:url(#SVGID_00000163045013166727956430000007717452160460390799_);stroke:url(#SVGID_00000134950334664023537820000005137940860908046004_);stroke-width:2;stroke-miterlimit:10;}
	
		.st7{fill:url(#SVGID_00000112630750341773804310000002497419718898418584_);stroke:url(#SVGID_00000146491869427669050630000018073344160412551071_);stroke-width:2;stroke-miterlimit:10;}
	.st8{fill:url(#SVGID_00000176017241321069324450000005729308382326738356_);}
	.st9{fill:url(#SVGID_00000042735271312444651580000018239505133668376504_);}
	.st10{fill:url(#SVGID_00000084532493134245933630000007622504953127507103_);}
	.st11{fill:url(#SVGID_00000169556896303430481210000017876040579022841769_);}
	.st12{fill:url(#SVGID_00000182516990588129148360000009710662636772992905_);}
	.st13{fill:url(#SVGID_00000163774505199242158930000018318173659015261590_);}
	.st14{fill:url(#SVGID_00000139977190564074825350000017770519029304231299_);}
	.st15{fill:url(#SVGID_00000157289925579971533770000015372322115242793143_);}
	.st16{fill:url(#SVGID_00000150820412603453175490000007098693823789749922_);}
	.st17{fill:#3C3C3B;}
	.st18{fill:url(#SVGID_00000114794148271601804960000006903096825914813832_);}
	.st19{fill:url(#SVGID_00000104681719899319165860000012936326890945924027_);}
	.st20{fill:url(#SVGID_00000017474261233201913970000006389677655055261840_);}
</style>
<g>
	<g>
		<g>
			<linearGradient id="SVGID_1_" gradientUnits="userSpaceOnUse" x1="150.646" y1="16.6109" x2="150.646" y2="57.44">
				<stop  offset="1.598337e-08" style="stop-color:#53378D"/>
				<stop  offset="1" style="stop-color:#203C88"/>
			</linearGradient>
			<path style="fill:url(#SVGID_1_);" d="M164.2,49.8c-2.8,2.3-6.6,3.7-10.5,3.7c-8.9,0-15.9-7.2-15.9-16.4c0-9.2,7-16.4,15.9-16.4
				c3.9,0,7.7,1.4,10.5,3.7l0.8,0.6l2.6-3l-0.8-0.6c-3.6-3-8.3-4.7-13.1-4.7c-11.2,0-19.9,9-19.9,20.4c0,11.4,8.7,20.4,19.9,20.4
				c4.7,0,9.5-1.7,13.1-4.7l0.8-0.7l-2.6-3L164.2,49.8z"/>
			
				<linearGradient id="SVGID_00000177473265747017443280000009645350327818990990_" gradientUnits="userSpaceOnUse" x1="180.5085" y1="28.5884" x2="180.5085" y2="57.44">
				<stop  offset="1.598337e-08" style="stop-color:#53378D"/>
				<stop  offset="1" style="stop-color:#203C88"/>
			</linearGradient>
			<path style="fill:url(#SVGID_00000177473265747017443280000009645350327818990990_);" d="M181.5,28.6c-3.8,0-7.3,0.9-10.2,2.7
				l-0.9,0.5l2.1,3.4l0.8-0.5c2.2-1.4,5.1-2.1,8.1-2.1c4.8,0,8,2.6,8,5V39h-11c-6,0-10.9,4-10.9,9c0,5.7,4.8,9.5,11.9,9.5
				c3.9,0,7.6-1.6,10.1-4.2l0.2,3.7h3.6V37.6C193.4,32.5,188.2,28.6,181.5,28.6z M179.5,53.4c-4.9,0-7.9-2.1-7.9-5.5
				c0-2.4,2.6-5,6.9-5h11v2.5C189.5,49.2,185.1,53.4,179.5,53.4z"/>
			
				<linearGradient id="SVGID_00000098903068919342558940000000749116403319100801_" gradientUnits="userSpaceOnUse" x1="206.6951" y1="28.5884" x2="206.6951" y2="57.44">
				<stop  offset="1.598337e-08" style="stop-color:#53378D"/>
				<stop  offset="1" style="stop-color:#203C88"/>
			</linearGradient>
			<path style="fill:url(#SVGID_00000098903068919342558940000000749116403319100801_);" d="M208,40.3c-3.7-1.1-7.1-2.1-7.1-4.2
				c0-1.9,2.8-3.5,6-3.5c2.7,0,5.2,1.1,6.7,2.9l0.7,0.8l3-2.7l-0.6-0.7c-2.2-2.7-5.8-4.3-9.7-4.3c-5.6,0-9.9,3.3-9.9,7.5
				c0,5.2,5.5,6.8,10.3,8.2c3.9,1.1,7.6,2.2,7.6,4.7c0,1.9-3,4.5-8,4.5c-5.6,0-8-2.5-8.6-3.3l-0.6-0.8l-3.1,2.4l0.6,0.8
				c2.2,3,6.6,4.9,11.7,4.9c5.9,0,12-3.2,12-8.5C218.8,43.4,212.8,41.7,208,40.3z"/>
			
				<linearGradient id="SVGID_00000128453768429108237560000005650766598695180176_" gradientUnits="userSpaceOnUse" x1="232.3323" y1="28.5884" x2="232.3323" y2="57.44">
				<stop  offset="1.598337e-08" style="stop-color:#53378D"/>
				<stop  offset="1" style="stop-color:#203C88"/>
			</linearGradient>
			<path style="fill:url(#SVGID_00000128453768429108237560000005650766598695180176_);" d="M243.1,38.5c0.5-0.5,1-0.9,1.5-1.3
				l1.3-1.2l-1-1.5c-2.7-3.7-7.1-5.9-11.7-5.9c-8,0-14.4,6.5-14.4,14.4s6.5,14.4,14.4,14.4c4,0,7.8-1.6,10.5-4.6l0.7-0.7l-2.9-2.7
				l-0.7,0.7c-2,2.1-4.7,3.3-7.6,3.3c-5,0-9.3-3.6-10.3-8.4h8.5C236,45,240.3,41.1,243.1,38.5z M233.2,32.5c2.7,0,5.2,1,7.2,3
				c-0.1,0.1-0.1,0.1-0.2,0.2c-2.5,2.2-5.8,5.3-8.7,5.3h-8.5C223.9,36.2,228.2,32.5,233.2,32.5z"/>
			
				<linearGradient id="SVGID_00000002378478323790022810000008950280001701797283_" gradientUnits="userSpaceOnUse" x1="258.074" y1="19.1177" x2="258.074" y2="56.939">
				<stop  offset="1.598337e-08" style="stop-color:#53378D"/>
				<stop  offset="1" style="stop-color:#203C88"/>
			</linearGradient>
			<path style="fill:url(#SVGID_00000002378478323790022810000008950280001701797283_);" d="M268,31h-4V47h-13.4
				c8.3-11.8,11.4-19.2,11.4-26.9v-1h-4v1c0,7.2-3.4,14.5-12.6,27.1l-0.4,0.5V51H264v6h4v-6h3v-4h-3V31z"/>
			
				<linearGradient id="SVGID_00000056392774034988248150000002135528905902860712_" gradientUnits="userSpaceOnUse" x1="286.9045" y1="16.2432" x2="286.9045" y2="56.939">
				<stop  offset="1.598337e-08" style="stop-color:#53378D"/>
				<stop  offset="1" style="stop-color:#203C88"/>
			</linearGradient>
			<polygon style="fill:url(#SVGID_00000056392774034988248150000002135528905902860712_);" points="300.6,16.3 286.9,38.8 
				273.1,16.2 269.8,18.3 284.9,43.1 284.9,56.9 288.9,56.9 288.9,43.1 304.1,18.3 			"/>
			
				<linearGradient id="SVGID_00000046316308990678498100000013377003052011144373_" gradientUnits="userSpaceOnUse" x1="312.7468" y1="28.5884" x2="312.7468" y2="57.44">
				<stop  offset="1.598337e-08" style="stop-color:#53378D"/>
				<stop  offset="1" style="stop-color:#203C88"/>
			</linearGradient>
			<path style="fill:url(#SVGID_00000046316308990678498100000013377003052011144373_);" d="M312.7,28.6c-7.7,0-13.9,6.5-13.9,14.4
				s6.2,14.4,13.9,14.4S326.7,51,326.7,43S320.4,28.6,312.7,28.6z M312.7,32.5c5.5,0,9.9,4.7,9.9,10.5c0,5.7-4.4,10.4-9.9,10.4
				s-9.9-4.7-9.9-10.4C302.8,37.2,307.3,32.5,312.7,32.5z"/>
			
				<linearGradient id="SVGID_00000059994801725594616280000005841987534082475442_" gradientUnits="userSpaceOnUse" x1="341.0994" y1="29.0894" x2="341.0994" y2="57.44">
				<stop  offset="1.598337e-08" style="stop-color:#53378D"/>
				<stop  offset="1" style="stop-color:#203C88"/>
			</linearGradient>
			<path style="fill:url(#SVGID_00000059994801725594616280000005841987534082475442_);" d="M350.1,29.1v12.4
				c0,6.6-4.9,11.9-11,11.9c-4.4,0-7-2.2-7-6V29.1h-4v18.4c0,6.1,4.3,10,10.9,10c4.4,0,8.4-2.1,11.1-5.7l0.2,5.2h3.6V29.1H350.1z"/>
		</g>
		<g>
			<path class="st17" d="M134.3,75.1l-0.6-0.2l4.5-11.3h0.4l4.5,11.3l-0.6,0.2l-1.2-3.1h-5.9L134.3,75.1z M141.2,71.5l-2.7-6.8
				l-2.7,6.8H141.2z"/>
			<path class="st17" d="M155.7,68.5l-0.4,0.4c-0.6-0.7-1.4-1.1-2.4-1.1c-1.9,0-3.4,1.6-3.4,3.4c0,1.9,1.5,3.4,3.4,3.4
				c1,0,1.8-0.4,2.4-1.1l0.4,0.4c-1.2,1.3-2.5,1.3-2.8,1.3c-2.2,0-4-1.8-4-4c0-2.2,1.8-4,4-4C153.2,67.2,154.5,67.2,155.7,68.5z"/>
			<path class="st17" d="M156.6,72.6c0-1.3,1.4-2.4,3-2.4h3.6v-0.7c0-0.9-1.1-1.8-2.7-1.8c-1,0-1.9,0.3-2.6,0.7l-0.3-0.5
				c0.8-0.5,1.8-0.8,2.9-0.8c1.7,0,3.3,1,3.3,2.4V75h-0.5l-0.1-1.6h0c-0.6,1.1-1.9,1.8-3.3,1.8C157.7,75.2,156.6,74.1,156.6,72.6z
				 M163.1,71.9v-1h-3.6c-1.4,0-2.4,0.8-2.4,1.8c0,1,0.9,1.9,2.7,1.9C161.6,74.6,163.1,73.2,163.1,71.9z"/>
			<path class="st17" d="M170.6,72.9c0-2.1-5.3-1.3-5.3-3.8c0-1.1,1.2-1.9,2.7-1.9c1.1,0,2.1,0.4,2.7,1.2l-0.4,0.4
				c-0.5-0.6-1.3-1-2.2-1c-1.1,0-2.1,0.6-2.1,1.3c0,1.9,5.3,1.2,5.3,3.8c0,1.3-1.6,2.2-3.3,2.2c-1.7,0-2.8-0.6-3.3-1.3l0.5-0.4
				c0.4,0.5,1.3,1.1,2.8,1.1C169.5,74.6,170.6,73.7,170.6,72.9z"/>
			<path class="st17" d="M172.4,71.5c0.1,1.7,1.6,3.1,3.4,3.1c1,0,1.9-0.4,2.5-1.1l0.4,0.4c-0.7,0.8-1.8,1.3-2.9,1.3
				c-2.2,0-4-1.8-4-4c0-2.2,1.8-4,4-4c1.3,0,2.5,0.6,3.2,1.6l0.1,0.2l-0.2,0.2c-0.7,0.6-2.2,2.3-3.7,2.3H172.4z M178.4,68.9
				c-0.6-0.7-1.5-1.2-2.6-1.2c-1.8,0-3.3,1.4-3.4,3.1h2.9C176.4,70.9,177.6,69.6,178.4,68.9z"/>
			<path class="st17" d="M192.2,69.2L192.2,69.2l0.1-1.9h0.5V78h0.3v0.6h-0.9v-5.5c-0.6,1.2-1.9,2.1-3.3,2.1c-2.1,0-3.8-1.8-3.8-4
				c0-2.2,1.7-4,3.8-4C190.4,67.2,191.6,68,192.2,69.2z M185.7,71.2c0,1.9,1.5,3.4,3.3,3.4c1.8,0,3.3-1.5,3.3-3.4
				c0-1.9-1.5-3.4-3.3-3.4C187.2,67.8,185.7,69.3,185.7,71.2z"/>
			<path class="st17" d="M195,67.3v5.2c0,1.3,0.9,2.1,2.4,2.1c2,0,3.6-1.7,3.6-3.8v-3.4h0.6V75h-0.5l-0.1-2.2h0
				c-0.7,1.4-2,2.3-3.5,2.3c-1.8,0-3-1-3-2.7v-5.2H195z"/>
			<path class="st17" d="M203.3,71.5c0.1,1.7,1.6,3.1,3.4,3.1c1,0,1.9-0.4,2.5-1.1l0.4,0.4c-0.7,0.8-1.8,1.3-2.9,1.3
				c-2.2,0-4-1.8-4-4c0-2.2,1.8-4,4-4c1.3,0,2.5,0.6,3.2,1.6l0.1,0.2l-0.2,0.2c-0.7,0.6-2.2,2.3-3.7,2.3H203.3z M209.3,68.9
				c-0.6-0.7-1.5-1.2-2.6-1.2c-1.8,0-3.3,1.4-3.4,3.1h2.9C207.3,70.9,208.5,69.6,209.3,68.9z"/>
			<path class="st17" d="M216.5,67.2l3.6,7.1l3.6-7.1l0.5,0.3l-3.9,7.7h-0.4l-3.9-7.7L216.5,67.2z"/>
			<path class="st17" d="M232,71.2c0,2.2-1.7,4-3.8,4s-3.8-1.8-3.8-4c0-2.2,1.7-4,3.8-4S232,69,232,71.2z M224.9,71.2
				c0,1.9,1.5,3.4,3.3,3.4s3.3-1.5,3.3-3.4c0-1.9-1.5-3.4-3.3-3.4S224.9,69.3,224.9,71.2z"/>
			<path class="st17" d="M239.6,68.5l-0.4,0.4c-0.6-0.7-1.4-1.1-2.4-1.1c-1.9,0-3.4,1.6-3.4,3.4c0,1.9,1.5,3.4,3.4,3.4
				c1,0,1.8-0.4,2.4-1.1l0.4,0.4c-1.2,1.3-2.5,1.3-2.8,1.3c-2.2,0-4-1.8-4-4c0-2.2,1.8-4,4-4C237.1,67.2,238.4,67.2,239.6,68.5z"/>
			<path class="st17" d="M241.1,71.5c0.1,1.7,1.6,3.1,3.4,3.1c1,0,1.9-0.4,2.5-1.1l0.4,0.4c-0.7,0.8-1.8,1.3-2.9,1.3
				c-2.2,0-4-1.8-4-4c0-2.2,1.8-4,4-4c1.3,0,2.5,0.6,3.2,1.6l0.1,0.2l-0.2,0.2c-0.7,0.6-2.2,2.3-3.7,2.3H241.1z M247.1,68.9
				c-0.6-0.7-1.5-1.2-2.6-1.2c-1.8,0-3.3,1.4-3.4,3.1h2.9C245.1,70.9,246.3,69.6,247.1,68.9z M244.5,64.5l-2,1.6l-0.4-0.4l2.2-1.8
				h0.5l2.2,1.8l-0.4,0.4L244.5,64.5L244.5,64.5z"/>
			<path class="st17" d="M253.8,72.6c0-1.3,1.4-2.4,3-2.4h3.6v-0.7c0-0.9-1.1-1.8-2.7-1.8c-1,0-1.9,0.3-2.6,0.7l-0.3-0.5
				c0.8-0.5,1.8-0.8,2.9-0.8c1.7,0,3.3,1,3.3,2.4V75h-0.5l-0.1-1.6h0c-0.6,1.1-1.9,1.8-3.3,1.8C255,75.2,253.8,74.1,253.8,72.6z
				 M260.3,71.9v-1h-3.6c-1.4,0-2.4,0.8-2.4,1.8c0,1,0.9,1.9,2.7,1.9C258.9,74.6,260.3,73.2,260.3,71.9z"/>
			<path class="st17" d="M263.1,67.3l0.1,2.1h0c0.6-1.4,1.9-2.3,3.3-2.3c1.6,0,2.5,0.8,2.7,2.3c0.6-1.4,1.9-2.3,3.3-2.3
				c1.7,0,2.7,0.9,2.7,2.7V75h-0.6v-5.2c0-1.3-0.6-2.1-2.1-2.1c-1.8,0-3.3,1.7-3.3,3.9V75h-0.6v-5.2c0-1.3-0.6-2.1-2.1-2.1
				c-1.8,0-3.3,1.7-3.3,3.9V75h-0.6v-7.7H263.1z"/>
			<path class="st17" d="M276,72.6c0-1.3,1.4-2.4,3-2.4h3.6v-0.7c0-0.9-1.1-1.8-2.7-1.8c-1,0-1.9,0.3-2.6,0.7l-0.3-0.5
				c0.8-0.5,1.8-0.8,2.9-0.8c1.7,0,3.3,1,3.3,2.4V75h-0.5l-0.1-1.6h0c-0.6,1.1-1.9,1.8-3.3,1.8C277.2,75.2,276,74.1,276,72.6z
				 M282.6,71.9v-1H279c-1.4,0-2.4,0.8-2.4,1.8c0,1,0.9,1.9,2.7,1.9C281.1,74.6,282.6,73.2,282.6,71.9z"/>
			<path class="st17" d="M285,74.1c0.3,0,0.5,0.2,0.5,0.5c0,0.8-0.4,1.5-1,2.1l-0.3-0.3c0.3-0.3,0.6-0.8,0.6-1.3
				c-0.2-0.1-0.4-0.3-0.4-0.5C284.5,74.4,284.7,74.1,285,74.1z"/>
			<path class="st17" d="M293.6,65.5v1.8h3v0.6h-3v5c0,0.9,0.7,1.6,1.6,1.6c0.4,0,0.8-0.1,1.2-0.4l0.3,0.5c-0.4,0.3-0.9,0.5-1.5,0.5
				c-1.2,0-2.2-1-2.2-2.2v-5h-1.2v-0.6h1.2v-1.8H293.6z"/>
			<path class="st17" d="M297.8,71.5c0.1,1.7,1.6,3.1,3.4,3.1c1,0,1.9-0.4,2.5-1.1l0.4,0.4c-0.7,0.8-1.8,1.3-2.9,1.3
				c-2.2,0-4-1.8-4-4c0-2.2,1.8-4,4-4c1.3,0,2.5,0.6,3.2,1.6l0.1,0.2l-0.2,0.2c-0.7,0.6-2.2,2.3-3.7,2.3H297.8z M303.8,68.9
				c-0.6-0.7-1.5-1.2-2.6-1.2c-1.8,0-3.3,1.4-3.4,3.1h2.9C301.8,70.9,303,69.6,303.8,68.9z"/>
			<path class="st17" d="M306.3,67.3l0.1,2.1h0c0.6-1.4,1.9-2.3,3.3-2.3c1.6,0,2.5,0.8,2.7,2.3c0.6-1.4,1.9-2.3,3.3-2.3
				c1.7,0,2.7,0.9,2.7,2.7V75h-0.6v-5.2c0-1.3-0.6-2.1-2.1-2.1c-1.8,0-3.3,1.7-3.3,3.9V75h-0.6v-5.2c0-1.3-0.6-2.1-2.1-2.1
				c-1.8,0-3.3,1.7-3.3,3.9V75h-0.6v-7.7H306.3z"/>
			<path class="st17" d="M324.6,72.6c0-1.3,1.4-2.4,3-2.4h3.6v-0.7c0-0.9-1.1-1.8-2.7-1.8c-1,0-1.9,0.3-2.6,0.7l-0.3-0.5
				c0.8-0.5,1.8-0.8,2.9-0.8c1.7,0,3.3,1,3.3,2.4V75h-0.5l-0.1-1.6h0c-0.6,1.1-1.9,1.8-3.3,1.8C325.8,75.2,324.6,74.1,324.6,72.6z
				 M331.1,71.9v-1h-3.6c-1.4,0-2.4,0.8-2.4,1.8c0,1,0.9,1.9,2.7,1.9C329.7,74.6,331.1,73.2,331.1,71.9z"/>
			<path class="st17" d="M339.8,69.2L339.8,69.2l0.1-1.9h0.5V78h0.3v0.6h-0.9v-5.5c-0.6,1.2-1.9,2.1-3.3,2.1c-2.1,0-3.8-1.8-3.8-4
				c0-2.2,1.7-4,3.8-4C338,67.2,339.2,68,339.8,69.2z M333.3,71.2c0,1.9,1.5,3.4,3.3,3.4c1.8,0,3.3-1.5,3.3-3.4
				c0-1.9-1.5-3.4-3.3-3.4C334.8,67.8,333.3,69.3,333.3,71.2z"/>
			<path class="st17" d="M342.6,67.3v5.2c0,1.3,0.9,2.1,2.4,2.1c2,0,3.6-1.7,3.6-3.8v-3.4h0.6V75h-0.5l-0.1-2.2h0
				c-0.7,1.4-2,2.3-3.5,2.3c-1.8,0-3-1-3-2.7v-5.2H342.6z"/>
			<path class="st17" d="M351.2,64.4c0.3,0,0.5,0.2,0.5,0.5c0,0.3-0.2,0.5-0.5,0.5c-0.3,0-0.5-0.2-0.5-0.5
				C350.7,64.6,350.9,64.4,351.2,64.4z M351.5,67.3V75h-0.6v-7.7H351.5z"/>
			<path class="st17" d="M353.5,74.1c0.3,0,0.5,0.2,0.5,0.5c0,0.3-0.2,0.5-0.5,0.5c-0.3,0-0.5-0.2-0.5-0.5
				C353,74.4,353.2,74.1,353.5,74.1z"/>
		</g>
	</g>
	<g>
		
			<linearGradient id="SVGID_00000157282504241266520060000001187727027789359763_" gradientUnits="userSpaceOnUse" x1="20.809" y1="20.5981" x2="20.809" y2="35.6188">
			<stop  offset="1.598337e-08" style="stop-color:#53378D"/>
			<stop  offset="1" style="stop-color:#203C88"/>
		</linearGradient>
		<path style="fill:url(#SVGID_00000157282504241266520060000001187727027789359763_);" d="M18.2,21.1c-3.9,1.4-5.9,5.7-4.5,9.6
			c1.1,3,4,4.9,7.1,4.9c0.9,0,1.7-0.1,2.6-0.5c3.9-1.4,5.9-5.7,4.5-9.6C26.4,21.6,22.1,19.6,18.2,21.1z M22,31.4
			c-1.8,0.7-3.8-0.3-4.5-2.1c-0.7-1.8,0.3-3.8,2.1-4.5c0.4-0.1,0.8-0.2,1.2-0.2c0.5,0,1,0.1,1.5,0.3c0.8,0.4,1.5,1.1,1.8,2
			C24.8,28.7,23.8,30.7,22,31.4z"/>
		
			<linearGradient id="SVGID_00000130637638109906780540000010185293922919910796_" gradientUnits="userSpaceOnUse" x1="56.9763" y1="0" x2="56.9763" y2="94.8063">
			<stop  offset="1.598337e-08" style="stop-color:#53378D"/>
			<stop  offset="1" style="stop-color:#203C88"/>
		</linearGradient>
		<path style="fill:url(#SVGID_00000130637638109906780540000010185293922919910796_);" d="M95.2,4.9l-8.6-3.1C76.2-2,64.8,0.4,57,8
			C49.4,0.7,38-2.1,27.4,1.7l-8.6,3.1C4,10.3-3.7,26.7,1.7,41.5L14.3,76c2.6,7.2,7.9,12.9,14.8,16.1c3.8,1.8,7.9,2.7,12,2.7
			c3.3,0,6.6-0.6,9.8-1.7l6.1-2.2l6.1,2.2c3.2,1.2,6.5,1.7,9.7,1.7c11.7,0,22.6-7.2,26.9-18.8l12.6-34.5
			C117.6,26.7,110,10.3,95.2,4.9z M49.5,89.3c-6.2,2.2-12.8,2-18.8-0.8c-5.9-2.8-10.5-7.7-12.7-13.9L5.5,40.1
			c-4.6-12.7,2-26.8,14.7-31.5l8.6-3.1c2.8-1,5.6-1.5,8.4-1.5c10,0,19.5,6.2,23.1,16.2l12.6,34.5c4.6,12.7-2,26.8-14.7,31.5
			L49.5,89.3z M108.5,40.1L95.9,74.6c-2.2,6.2-6.8,11.1-12.7,13.9c-5.9,2.8-12.6,3.1-18.8,0.8l-1.9-0.7
			c12.8-6.4,19.1-21.5,14.1-35.3L64,18.8c-1.1-2.9-2.6-5.5-4.4-7.9c6.7-6.5,16.6-8.7,25.5-5.4l8.6,3.1
			C106.5,13.3,113.1,27.4,108.5,40.1z"/>
		
			<linearGradient id="SVGID_00000031184776407381385260000004950427368642349190_" gradientUnits="userSpaceOnUse" x1="73.137" y1="13.3143" x2="73.137" y2="28.338">
			<stop  offset="1.598337e-08" style="stop-color:#53378D"/>
			<stop  offset="1" style="stop-color:#203C88"/>
		</linearGradient>
		<path style="fill:url(#SVGID_00000031184776407381385260000004950427368642349190_);" d="M75.7,13.8c-1.9-0.7-3.9-0.6-5.7,0.3
			c-1.8,0.8-3.2,2.4-3.9,4.2s-0.6,3.9,0.3,5.7c0.8,1.8,2.4,3.2,4.2,3.9c0.8,0.3,1.7,0.5,2.6,0.5c3.1,0,6-1.9,7.1-4.9
			C81.6,19.5,79.6,15.2,75.7,13.8z M76.4,22c-0.3,0.9-1,1.6-1.8,2c-0.8,0.4-1.8,0.4-2.7,0.1s-1.6-1-2-1.8c-0.4-0.8-0.4-1.8-0.1-2.7
			s1-1.6,1.8-2c0.5-0.2,1-0.3,1.5-0.3c0.4,0,0.8,0.1,1.2,0.2c0.9,0.3,1.6,1,2,1.8C76.7,20.2,76.8,21.1,76.4,22z"/>
	</g>
</g>
</svg>
