<?xml version="1.0" encoding="utf-8"?>
<!-- Generator: Adobe Illustrator 28.0.0, SVG Export Plug-In . SVG Version: 6.00 Build 0)  -->
<svg version="1.1" id="Camada_1" xmlns="http://www.w3.org/2000/svg" xmlns:xlink="http://www.w3.org/1999/xlink" x="0px" y="0px"
	 viewBox="0 0 409.8 261.5" style="enable-background:new 0 0 409.8 261.5;" xml:space="preserve">
<style type="text/css">
	.st0{fill:#241F4C;}
	.st1{fill:#6A4E94;stroke:#6A4D93;stroke-width:8;stroke-linecap:round;stroke-linejoin:round;stroke-miterlimit:10;}
	.st2{fill:#3C00A7;}
	.st3{fill:#5B00FB;}
	.st4{fill:#1D0052;}
	.st5{fill:#FFFFFF;}
	.st6{fill:#3C2F87;}
	.st7{fill:#454696;}
	.st8{fill:#FFFFFF;stroke:#241F4C;stroke-width:8;stroke-miterlimit:10;}
	.st9{fill:#454696;stroke:#454696;stroke-width:2;stroke-miterlimit:10;}
	.st10{fill:#241F4C;stroke:#241F4C;stroke-width:3.5;stroke-miterlimit:10;}
</style>
<g>
	<g>
		<path class="st5" d="M10.5,245c-0.9-0.5-2-0.8-3.2-0.8c-1.2,0-2.2,0.3-3.1,0.8c-0.9,0.5-1.7,1.3-2.2,2.3c-0.6,1-0.8,2.2-0.8,3.7
			s0.3,2.7,0.8,3.7c0.5,1,1.3,1.8,2.2,2.3c0.9,0.5,2,0.8,3.2,0.8c1.2,0,2.2-0.3,3.2-0.8c0.9-0.5,1.7-1.3,2.2-2.3
			c0.5-1,0.8-2.2,0.8-3.7s-0.3-2.7-0.8-3.7C12.2,246.3,11.4,245.5,10.5,245z M10.6,255c-0.8,0.9-1.9,1.4-3.2,1.4
			c-1.3,0-2.4-0.5-3.2-1.4s-1.2-2.2-1.2-3.9s0.4-3,1.2-3.9s1.9-1.4,3.2-1.4c1.3,0,2.4,0.5,3.2,1.4s1.2,2.2,1.2,3.9
			S11.4,254,10.6,255z"/>
		<path class="st5" d="M20.7,247.4c-0.8,0-1.5,0.1-2.1,0.3c-0.6,0.2-1.1,0.4-1.5,0.6c-0.3,0.2-0.5,0.4-0.6,0.6
			c-0.1,0.2-0.2,0.4-0.2,0.7v2.4v1.2v3.7c0,0.3,0.1,0.5,0.2,0.6c0.2,0.1,0.4,0.2,0.7,0.2c0.2,0,0.3,0,0.5-0.1c0.1,0,0.2-0.1,0.3-0.1
			v-4.3V252v-2.5c0.3-0.2,0.7-0.3,1.1-0.5c0.4-0.1,0.9-0.2,1.5-0.2c0.8,0,1.4,0.2,1.8,0.6c0.4,0.4,0.7,1,0.7,1.8v0.9v1.2v3.7
			c0,0.3,0.1,0.5,0.2,0.6c0.1,0.1,0.4,0.2,0.7,0.2c0.2,0,0.3,0,0.5-0.1c0.2,0,0.3-0.1,0.3-0.1v-4.3V252v-1c0-1.2-0.4-2.2-1.1-2.7
			C23,247.7,22,247.4,20.7,247.4z"/>
		<path class="st5" d="M35.6,243.5c-0.2,0-0.3,0-0.5,0.1c-0.1,0-0.3,0.1-0.3,0.1v4.3c-0.2-0.1-0.5-0.3-0.9-0.4
			c-0.5-0.2-1-0.2-1.6-0.2c-0.9,0-1.7,0.2-2.4,0.5c-0.7,0.4-1.3,0.9-1.8,1.7c-0.4,0.8-0.7,1.8-0.7,3c0,1.2,0.2,2.2,0.7,3
			c0.4,0.8,1.1,1.3,1.8,1.7c0.8,0.4,1.7,0.5,2.7,0.5c0.7,0,1.3-0.1,1.8-0.2c0.5-0.2,0.9-0.3,1.2-0.5c0.3-0.2,0.4-0.3,0.6-0.5
			c0.1-0.2,0.2-0.4,0.2-0.7v-6.8v-0.4v-4.3c0-0.3-0.1-0.5-0.2-0.6C36.2,243.6,35.9,243.5,35.6,243.5z M34,256.2
			c-0.3,0.1-0.7,0.2-1.2,0.2c-1,0-1.9-0.3-2.5-0.9c-0.6-0.6-0.9-1.5-0.9-2.8c0-1,0.1-1.7,0.4-2.3c0.3-0.6,0.7-1,1.2-1.2
			c0.5-0.2,1-0.4,1.6-0.4c0.6,0,1.1,0.1,1.5,0.3c0.3,0.1,0.5,0.3,0.7,0.4v6.3C34.6,256,34.3,256.1,34,256.2z"/>
		<path class="st5" d="M46.3,247.9c-0.7-0.4-1.4-0.6-2.3-0.6c-0.7,0-1.3,0.1-1.9,0.4c-0.6,0.2-1.1,0.6-1.5,1s-0.7,1-1,1.6
			c-0.2,0.6-0.4,1.4-0.4,2.2c0,1.1,0.2,2.1,0.7,2.9c0.4,0.8,1.1,1.4,1.9,1.8c0.8,0.4,1.8,0.6,2.9,0.6c0.6,0,1.2-0.1,1.7-0.2
			c0.5-0.1,0.9-0.3,1.2-0.6c0.3-0.2,0.5-0.5,0.5-0.8c0-0.2,0-0.3-0.1-0.5c-0.1-0.1-0.2-0.3-0.4-0.4c-0.3,0.2-0.7,0.4-1.2,0.6
			c-0.5,0.2-1,0.3-1.6,0.3c-1.1,0-2-0.3-2.7-0.9c-0.5-0.5-0.8-1.1-1-1.9l6.6-0.9c0.3,0,0.5-0.1,0.6-0.2c0.1-0.1,0.2-0.4,0.2-0.7
			c0-0.9-0.2-1.6-0.6-2.3C47.4,248.8,46.9,248.3,46.3,247.9z M40.9,252.3c0-1.1,0.3-1.9,0.9-2.5c0.6-0.6,1.3-1,2.2-1
			c0.9,0,1.5,0.3,2,0.8c0.5,0.5,0.8,1.2,0.8,1.9L40.9,252.3z"/>
		<path class="st5" d="M58.7,247.4c-0.6,0-1.1,0.1-1.6,0.2c-0.5,0.1-1,0.3-1.3,0.5c-0.4,0.2-0.6,0.5-0.6,0.9c0,0.1,0,0.3,0.1,0.4
			c0.1,0.1,0.2,0.3,0.3,0.4c0.4-0.2,0.9-0.4,1.4-0.6c0.5-0.2,1.1-0.3,1.7-0.3c0.7,0,1.3,0.2,1.7,0.5c0.4,0.3,0.6,0.8,0.6,1.6v0.6
			l-3,0.3c-1.1,0.1-2,0.4-2.6,0.9c-0.6,0.5-0.9,1.2-0.9,2.1c0,1,0.4,1.8,1.1,2.3c0.7,0.5,1.8,0.8,3.1,0.8c0.7,0,1.4-0.1,1.9-0.2
			c0.6-0.2,1-0.3,1.4-0.5c0.2-0.1,0.4-0.3,0.5-0.5c0.1-0.2,0.2-0.4,0.2-0.7v-5.1c0-1.2-0.4-2.1-1.1-2.6
			C60.9,247.7,59.9,247.4,58.7,247.4z M61,255.9c-0.2,0.1-0.5,0.2-0.8,0.4s-0.9,0.2-1.5,0.2c-0.8,0-1.5-0.1-1.9-0.4
			c-0.4-0.3-0.6-0.7-0.6-1.2c0-0.5,0.2-0.9,0.5-1.2c0.4-0.3,0.9-0.4,1.6-0.5l2.7-0.3V255.9z"/>
		<path class="st5" d="M72.3,247.9c-0.8-0.4-1.6-0.5-2.6-0.5c-0.7,0-1.3,0.1-1.8,0.3c-0.5,0.2-1,0.4-1.4,0.6
			c-0.3,0.2-0.5,0.4-0.6,0.5c-0.1,0.2-0.1,0.4-0.1,0.7v6.4v0.6v4.2c0,0.3,0.1,0.5,0.2,0.6c0.2,0.1,0.4,0.2,0.7,0.2
			c0.2,0,0.3,0,0.5-0.1c0.1,0,0.2-0.1,0.3-0.1v-4.2c0.2,0.1,0.5,0.2,0.8,0.3c0.5,0.2,1.1,0.3,1.7,0.3c0.9,0,1.8-0.2,2.5-0.6
			c0.7-0.4,1.3-1,1.7-1.7c0.4-0.8,0.6-1.7,0.6-2.9c0-1.2-0.2-2.2-0.7-3C73.7,248.9,73.1,248.3,72.3,247.9z M72.2,255.5
			c-0.6,0.6-1.4,0.9-2.4,0.9c-0.6,0-1.1-0.1-1.6-0.3c-0.3-0.1-0.5-0.3-0.7-0.4v-6.3c0.3-0.2,0.6-0.3,1-0.4c0.4-0.1,0.8-0.2,1.3-0.2
			c0.6,0,1.1,0.1,1.6,0.4c0.5,0.2,0.9,0.6,1.2,1.2c0.3,0.5,0.5,1.3,0.5,2.2C73.1,253.9,72.8,254.9,72.2,255.5z"/>
		<path class="st5" d="M81.9,247.4c-0.8,0-1.5,0.1-2.1,0.3c-0.6,0.2-1.1,0.4-1.5,0.6c-0.3,0.2-0.5,0.4-0.6,0.6
			c-0.1,0.2-0.2,0.5-0.2,0.8v2.3v1v4c0,0.3,0.1,0.5,0.2,0.6c0.2,0.1,0.4,0.2,0.7,0.2c0.2,0,0.3,0,0.5-0.1c0.1,0,0.2-0.1,0.3-0.1
			v-4.6v-0.7v-2.7c0.3-0.2,0.7-0.3,1.2-0.5c0.5-0.1,1.1-0.2,1.7-0.2c0.2,0,0.5,0,0.7,0c0.2,0,0.4,0.1,0.6,0.1
			c0.1-0.1,0.1-0.2,0.2-0.3c0-0.1,0.1-0.3,0.1-0.4C83.6,247.7,83.1,247.4,81.9,247.4z"/>
		<path class="st5" d="M91.9,247.9c-0.7-0.4-1.4-0.6-2.3-0.6c-0.7,0-1.3,0.1-1.9,0.4c-0.6,0.2-1.1,0.6-1.5,1s-0.7,1-1,1.6
			c-0.2,0.6-0.4,1.4-0.4,2.2c0,1.1,0.2,2.1,0.7,2.9c0.4,0.8,1.1,1.4,1.9,1.8c0.8,0.4,1.8,0.6,2.9,0.6c0.6,0,1.2-0.1,1.7-0.2
			c0.5-0.1,0.9-0.3,1.2-0.6c0.3-0.2,0.5-0.5,0.5-0.8c0-0.2,0-0.3-0.1-0.5c-0.1-0.1-0.2-0.3-0.4-0.4c-0.3,0.2-0.7,0.4-1.2,0.6
			c-0.5,0.2-1,0.3-1.6,0.3c-1.1,0-2-0.3-2.7-0.9c-0.5-0.5-0.8-1.1-1-1.9l6.6-0.9c0.3,0,0.5-0.1,0.6-0.2c0.1-0.1,0.2-0.4,0.2-0.7
			c0-0.9-0.2-1.6-0.6-2.3C93.1,248.8,92.6,248.3,91.9,247.9z M86.6,252.3c0-1.1,0.3-1.9,0.9-2.5c0.6-0.6,1.3-1,2.2-1
			c0.9,0,1.5,0.3,2,0.8c0.5,0.5,0.8,1.2,0.8,1.9L86.6,252.3z"/>
		<path class="st5" d="M100.9,247.4c-0.8,0-1.5,0.1-2.1,0.3c-0.6,0.2-1.1,0.4-1.5,0.6c-0.3,0.2-0.5,0.4-0.6,0.6
			c-0.1,0.2-0.2,0.4-0.2,0.7v2.4v1.2v3.7c0,0.3,0.1,0.5,0.2,0.6c0.2,0.1,0.4,0.2,0.7,0.2c0.2,0,0.3,0,0.5-0.1c0.1,0,0.2-0.1,0.3-0.1
			v-4.3V252v-2.5c0.3-0.2,0.7-0.3,1.1-0.5c0.4-0.1,0.9-0.2,1.5-0.2c0.8,0,1.4,0.2,1.8,0.6s0.7,1,0.7,1.8v0.9v1.2v3.7
			c0,0.3,0.1,0.5,0.2,0.6c0.1,0.1,0.4,0.2,0.7,0.2c0.2,0,0.3,0,0.5-0.1c0.2,0,0.3-0.1,0.3-0.1v-4.3V252v-1c0-1.2-0.4-2.2-1.1-2.7
			C103.2,247.7,102.2,247.4,100.9,247.4z"/>
		<path class="st5" d="M115.8,243.5c-0.2,0-0.3,0-0.5,0.1c-0.1,0-0.3,0.1-0.3,0.1v4.3c-0.2-0.1-0.5-0.3-0.9-0.4
			c-0.5-0.2-1-0.2-1.6-0.2c-0.9,0-1.7,0.2-2.4,0.5c-0.7,0.4-1.3,0.9-1.8,1.7c-0.4,0.8-0.7,1.8-0.7,3c0,1.2,0.2,2.2,0.7,3
			c0.4,0.8,1.1,1.3,1.8,1.7c0.8,0.4,1.7,0.5,2.7,0.5c0.7,0,1.3-0.1,1.8-0.2c0.5-0.2,0.9-0.3,1.2-0.5c0.3-0.2,0.4-0.3,0.6-0.5
			c0.1-0.2,0.2-0.4,0.2-0.7v-6.8v-0.4v-4.3c0-0.3-0.1-0.5-0.2-0.6C116.4,243.6,116.1,243.5,115.8,243.5z M114.2,256.2
			c-0.3,0.1-0.7,0.2-1.2,0.2c-1,0-1.9-0.3-2.5-0.9c-0.6-0.6-0.9-1.5-0.9-2.8c0-1,0.1-1.7,0.4-2.3c0.3-0.6,0.7-1,1.2-1.2
			c0.5-0.2,1-0.4,1.6-0.4c0.6,0,1.1,0.1,1.5,0.3c0.3,0.1,0.5,0.3,0.7,0.4v6.3C114.8,256,114.5,256.1,114.2,256.2z"/>
		<path class="st5" d="M126.5,247.9c-0.7-0.4-1.4-0.6-2.3-0.6c-0.7,0-1.3,0.1-1.9,0.4c-0.6,0.2-1.1,0.6-1.5,1s-0.7,1-1,1.6
			c-0.2,0.6-0.4,1.4-0.4,2.2c0,1.1,0.2,2.1,0.7,2.9c0.4,0.8,1.1,1.4,1.9,1.8c0.8,0.4,1.8,0.6,2.9,0.6c0.6,0,1.2-0.1,1.7-0.2
			c0.5-0.1,0.9-0.3,1.2-0.6c0.3-0.2,0.5-0.5,0.5-0.8c0-0.2,0-0.3-0.1-0.5c-0.1-0.1-0.2-0.3-0.4-0.4c-0.3,0.2-0.7,0.4-1.2,0.6
			c-0.5,0.2-1,0.3-1.6,0.3c-1.1,0-2-0.3-2.7-0.9c-0.5-0.5-0.8-1.1-1-1.9l6.6-0.9c0.3,0,0.5-0.1,0.6-0.2c0.1-0.1,0.2-0.4,0.2-0.7
			c0-0.9-0.2-1.6-0.6-2.3C127.6,248.8,127.1,248.3,126.5,247.9z M121.1,252.3c0-1.1,0.3-1.9,0.9-2.5c0.6-0.6,1.3-1,2.2-1
			c0.9,0,1.5,0.3,2,0.8c0.5,0.5,0.8,1.2,0.8,1.9L121.1,252.3z"/>
		<path class="st5" d="M135.5,247.4c-0.8,0-1.5,0.1-2.1,0.3c-0.6,0.2-1.1,0.4-1.5,0.6c-0.3,0.2-0.5,0.4-0.6,0.6
			c-0.1,0.2-0.2,0.5-0.2,0.8v2.3v1v4c0,0.3,0.1,0.5,0.2,0.6c0.2,0.1,0.4,0.2,0.7,0.2c0.2,0,0.3,0,0.5-0.1c0.1,0,0.2-0.1,0.3-0.1
			v-4.6v-0.7v-2.7c0.3-0.2,0.7-0.3,1.2-0.5c0.5-0.1,1.1-0.2,1.7-0.2c0.2,0,0.5,0,0.7,0c0.2,0,0.4,0.1,0.6,0.1
			c0.1-0.1,0.1-0.2,0.2-0.3c0-0.1,0.1-0.3,0.1-0.4C137.2,247.7,136.7,247.4,135.5,247.4z"/>
		<path class="st5" d="M150,247.9c-0.7-0.4-1.4-0.6-2.3-0.6c-0.7,0-1.3,0.1-1.9,0.4c-0.6,0.2-1.1,0.6-1.5,1s-0.7,1-1,1.6
			c-0.2,0.6-0.4,1.4-0.4,2.2c0,1.1,0.2,2.1,0.7,2.9c0.4,0.8,1.1,1.4,1.9,1.8c0.8,0.4,1.8,0.6,2.9,0.6c0.6,0,1.2-0.1,1.7-0.2
			c0.5-0.1,0.9-0.3,1.2-0.6c0.3-0.2,0.5-0.5,0.5-0.8c0-0.2,0-0.3-0.1-0.5c-0.1-0.1-0.2-0.3-0.4-0.4c-0.3,0.2-0.7,0.4-1.2,0.6
			c-0.5,0.2-1,0.3-1.6,0.3c-1.1,0-2-0.3-2.7-0.9c-0.5-0.5-0.8-1.1-1-1.9l6.6-0.9c0.3,0,0.5-0.1,0.6-0.2c0.1-0.1,0.2-0.4,0.2-0.7
			c0-0.9-0.2-1.6-0.6-2.3C151.2,248.8,150.7,248.3,150,247.9z M144.6,252.3c0-1.1,0.3-1.9,0.9-2.5c0.6-0.6,1.3-1,2.2-1
			c0.9,0,1.5,0.3,2,0.8c0.5,0.5,0.8,1.2,0.8,1.9L144.6,252.3z"/>
		<path class="st5" d="M148,246.5l1.9-1.9c0.2-0.2,0.3-0.3,0.4-0.5c0.1-0.1,0.1-0.3,0.1-0.5c0-0.2-0.1-0.4-0.3-0.5
			c-0.2-0.2-0.4-0.3-0.8-0.3l-2.1,2.3c-0.1,0.1-0.1,0.2-0.2,0.3c-0.1,0.1-0.1,0.2-0.1,0.3c0,0.2,0.1,0.4,0.3,0.5
			C147.5,246.4,147.8,246.5,148,246.5z"/>
		<path class="st5" d="M165.7,247.9c-0.7-0.4-1.5-0.6-2.4-0.6c-0.8,0-1.4,0.1-1.9,0.4c-0.3,0.1-0.5,0.3-0.7,0.4v-3.8
			c0-0.3-0.1-0.5-0.2-0.6c-0.1-0.1-0.4-0.2-0.7-0.2c-0.2,0-0.3,0-0.5,0.1c-0.1,0-0.3,0.1-0.3,0.1v4.9v0.3v6.8c0,0.3,0.1,0.5,0.2,0.7
			s0.3,0.4,0.6,0.6c0.4,0.2,0.8,0.4,1.4,0.6s1.2,0.3,1.9,0.3c1,0,1.8-0.2,2.6-0.6s1.3-0.9,1.7-1.7c0.4-0.8,0.6-1.8,0.6-2.9
			c0-1.2-0.2-2.2-0.6-2.9C166.9,248.9,166.4,248.3,165.7,247.9z M165.3,255.5c-0.6,0.6-1.4,0.9-2.3,0.9c-0.5,0-1-0.1-1.4-0.2
			c-0.4-0.1-0.7-0.3-0.9-0.4v-6c0.2-0.2,0.5-0.4,0.9-0.6c0.4-0.2,0.9-0.3,1.5-0.3c0.9,0,1.7,0.3,2.3,0.9c0.6,0.6,0.9,1.6,0.9,2.9
			C166.2,253.9,165.9,254.9,165.3,255.5z"/>
		<path class="st5" d="M175.1,247.4c-0.8,0-1.5,0.1-2.1,0.3c-0.6,0.2-1.1,0.4-1.5,0.6c-0.3,0.2-0.5,0.4-0.6,0.6
			c-0.1,0.2-0.2,0.5-0.2,0.8v2.3v1v4c0,0.3,0.1,0.5,0.2,0.6c0.2,0.1,0.4,0.2,0.7,0.2c0.2,0,0.3,0,0.5-0.1c0.1,0,0.2-0.1,0.3-0.1
			v-4.6v-0.7v-2.7c0.3-0.2,0.7-0.3,1.2-0.5c0.5-0.1,1.1-0.2,1.7-0.2c0.2,0,0.5,0,0.7,0c0.2,0,0.4,0.1,0.6,0.1
			c0.1-0.1,0.1-0.2,0.2-0.3c0-0.1,0.1-0.3,0.1-0.4C176.8,247.7,176.2,247.4,175.1,247.4z"/>
		<path class="st5" d="M179.7,247.6c-0.2,0-0.3,0-0.5,0.1c-0.2,0-0.3,0.1-0.3,0.1v4.2v0.8v4.1c0,0.3,0.1,0.5,0.2,0.6
			c0.2,0.1,0.4,0.2,0.7,0.2c0.2,0,0.3,0,0.5-0.1c0.1,0,0.2-0.1,0.3-0.1v-4.8v-0.8v-3.5c0-0.3-0.1-0.5-0.2-0.6
			C180.2,247.6,180,247.6,179.7,247.6z"/>
		<path class="st5" d="M179.7,243.5c-0.3,0-0.6,0.1-0.8,0.3c-0.2,0.2-0.3,0.5-0.3,0.8s0.1,0.6,0.3,0.8c0.2,0.2,0.5,0.3,0.8,0.3
			c0.3,0,0.6-0.1,0.8-0.3c0.2-0.2,0.3-0.5,0.3-0.8s-0.1-0.6-0.3-0.8C180.3,243.6,180.1,243.5,179.7,243.5z"/>
		<path class="st5" d="M188.3,247.4c-0.8,0-1.5,0.1-2.1,0.3c-0.6,0.2-1.1,0.4-1.5,0.6c-0.3,0.2-0.5,0.4-0.6,0.6
			c-0.1,0.2-0.2,0.4-0.2,0.7v2.4v1.2v3.7c0,0.3,0.1,0.5,0.2,0.6c0.2,0.1,0.4,0.2,0.7,0.2c0.2,0,0.3,0,0.5-0.1c0.1,0,0.2-0.1,0.3-0.1
			v-4.3V252v-2.5c0.3-0.2,0.7-0.3,1.1-0.5c0.4-0.1,0.9-0.2,1.5-0.2c0.8,0,1.4,0.2,1.8,0.6s0.7,1,0.7,1.8v0.9v1.2v3.7
			c0,0.3,0.1,0.5,0.2,0.6c0.1,0.1,0.4,0.2,0.7,0.2c0.2,0,0.3,0,0.5-0.1c0.2,0,0.3-0.1,0.3-0.1v-4.3V252v-1c0-1.2-0.4-2.2-1.1-2.7
			C190.6,247.7,189.6,247.4,188.3,247.4z"/>
		<path class="st5" d="M202.8,255.6c-0.3,0.2-0.7,0.4-1.1,0.6c-0.4,0.2-0.9,0.2-1.5,0.2c-1,0-1.8-0.3-2.4-1
			c-0.6-0.7-0.9-1.6-0.9-2.8c0-1.2,0.3-2.2,1-2.8c0.6-0.7,1.4-1,2.4-1c0.6,0,1.1,0.1,1.4,0.2c0.4,0.2,0.7,0.3,1,0.6
			c0.2-0.1,0.3-0.2,0.4-0.3c0.1-0.1,0.1-0.3,0.1-0.4c0-0.4-0.3-0.7-0.9-1c-0.6-0.3-1.3-0.4-2.2-0.4c-0.9,0-1.8,0.2-2.6,0.6
			c-0.8,0.4-1.4,1-1.8,1.8c-0.5,0.8-0.7,1.7-0.7,2.9c0,1.2,0.2,2.1,0.7,2.9c0.4,0.8,1.1,1.3,1.8,1.7c0.8,0.4,1.7,0.6,2.6,0.6
			c0.9,0,1.6-0.1,2.2-0.4c0.6-0.3,0.9-0.6,0.9-1c0-0.2,0-0.3-0.1-0.5C203.1,255.8,203,255.7,202.8,255.6z"/>
		<path class="st5" d="M209.5,247.4c-0.6,0-1.1,0.1-1.6,0.2c-0.5,0.1-1,0.3-1.3,0.5c-0.4,0.2-0.6,0.5-0.6,0.9c0,0.1,0,0.3,0.1,0.4
			c0.1,0.1,0.2,0.3,0.3,0.4c0.4-0.2,0.9-0.4,1.4-0.6c0.5-0.2,1.1-0.3,1.7-0.3c0.7,0,1.3,0.2,1.7,0.5c0.4,0.3,0.6,0.8,0.6,1.6v0.6
			l-3,0.3c-1.1,0.1-2,0.4-2.6,0.9c-0.6,0.5-0.9,1.2-0.9,2.1c0,1,0.4,1.8,1.1,2.3c0.7,0.5,1.8,0.8,3.1,0.8c0.7,0,1.4-0.1,1.9-0.2
			c0.6-0.2,1-0.3,1.4-0.5c0.2-0.1,0.4-0.3,0.5-0.5c0.1-0.2,0.2-0.4,0.2-0.7v-5.1c0-1.2-0.4-2.1-1.1-2.6
			C211.7,247.7,210.7,247.4,209.5,247.4z M211.8,255.9c-0.2,0.1-0.5,0.2-0.8,0.4c-0.4,0.1-0.9,0.2-1.5,0.2c-0.8,0-1.5-0.1-1.9-0.4
			c-0.4-0.3-0.6-0.7-0.6-1.2c0-0.5,0.2-0.9,0.5-1.2c0.4-0.3,0.9-0.4,1.6-0.5l2.7-0.3V255.9z"/>
		<path class="st5" d="M222.6,248.9c0.1-0.1,0.1-0.2,0.2-0.3c0-0.1,0.1-0.3,0.1-0.4c0-0.6-0.6-0.9-1.7-0.9c-0.8,0-1.5,0.1-2.1,0.3
			c-0.6,0.2-1.1,0.4-1.5,0.6c-0.3,0.2-0.5,0.4-0.6,0.6s-0.2,0.5-0.2,0.8v2.3v1v4c0,0.3,0.1,0.5,0.2,0.6c0.2,0.1,0.4,0.2,0.7,0.2
			c0.2,0,0.3,0,0.5-0.1c0.1,0,0.2-0.1,0.3-0.1v-4.6v-0.7v-2.7c0.3-0.2,0.7-0.3,1.2-0.5c0.5-0.1,1.1-0.2,1.7-0.2c0.2,0,0.5,0,0.7,0
			C222.2,248.9,222.4,248.9,222.6,248.9z"/>
		<path class="st5" d="M224,255.3c-0.2,0-0.3,0-0.4,0.1c-0.1,0-0.3,0.1-0.4,0.1c-0.1,0.4-0.2,0.8-0.3,1.4c-0.1,0.5-0.3,1-0.5,1.5
			c-0.2,0.5-0.3,0.9-0.4,1.3c0.2,0.2,0.5,0.4,0.8,0.4c0.3,0,0.6-0.2,0.8-0.6c0.1-0.2,0.3-0.5,0.5-0.9s0.4-0.9,0.5-1.3
			c0.1-0.5,0.2-0.9,0.2-1.2c0-0.3-0.1-0.5-0.2-0.6C224.5,255.4,224.3,255.3,224,255.3z"/>
		<path class="st5" d="M238.3,255.6c-0.3,0.2-0.7,0.4-1.1,0.6c-0.4,0.2-0.9,0.2-1.5,0.2c-1,0-1.8-0.3-2.4-1
			c-0.6-0.7-0.9-1.6-0.9-2.8c0-1.2,0.3-2.2,1-2.8c0.6-0.7,1.4-1,2.4-1c0.6,0,1.1,0.1,1.4,0.2c0.4,0.2,0.7,0.3,1,0.6
			c0.2-0.1,0.3-0.2,0.4-0.3c0.1-0.1,0.1-0.3,0.1-0.4c0-0.4-0.3-0.7-0.9-1c-0.6-0.3-1.3-0.4-2.2-0.4c-0.9,0-1.8,0.2-2.6,0.6
			c-0.8,0.4-1.4,1-1.8,1.8c-0.5,0.8-0.7,1.7-0.7,2.9c0,1.2,0.2,2.1,0.7,2.9c0.4,0.8,1.1,1.3,1.8,1.7c0.8,0.4,1.7,0.6,2.6,0.6
			c0.9,0,1.6-0.1,2.2-0.4c0.6-0.3,0.9-0.6,0.9-1c0-0.2,0-0.3-0.1-0.5S238.4,255.7,238.3,255.6z"/>
		<path class="st5" d="M245.8,247.4c-0.8,0-1.5,0.1-2.1,0.3c-0.6,0.2-1.1,0.4-1.5,0.6c-0.3,0.2-0.5,0.4-0.6,0.6s-0.2,0.5-0.2,0.8
			v2.3v1v4c0,0.3,0.1,0.5,0.2,0.6c0.2,0.1,0.4,0.2,0.7,0.2c0.2,0,0.3,0,0.5-0.1c0.1,0,0.2-0.1,0.3-0.1v-4.6v-0.7v-2.7
			c0.3-0.2,0.7-0.3,1.2-0.5c0.5-0.1,1.1-0.2,1.7-0.2c0.2,0,0.5,0,0.7,0c0.2,0,0.4,0.1,0.6,0.1c0.1-0.1,0.1-0.2,0.2-0.3
			s0.1-0.3,0.1-0.4C247.5,247.7,246.9,247.4,245.8,247.4z"/>
		<path class="st5" d="M255.8,247.9c-0.7-0.4-1.4-0.6-2.3-0.6c-0.7,0-1.3,0.1-1.9,0.4c-0.6,0.2-1.1,0.6-1.5,1s-0.7,1-1,1.6
			c-0.2,0.6-0.4,1.4-0.4,2.2c0,1.1,0.2,2.1,0.7,2.9c0.4,0.8,1.1,1.4,1.9,1.8c0.8,0.4,1.8,0.6,2.9,0.6c0.6,0,1.2-0.1,1.7-0.2
			c0.5-0.1,0.9-0.3,1.2-0.6c0.3-0.2,0.5-0.5,0.5-0.8c0-0.2,0-0.3-0.1-0.5c-0.1-0.1-0.2-0.3-0.4-0.4c-0.3,0.2-0.7,0.4-1.2,0.6
			c-0.5,0.2-1,0.3-1.6,0.3c-1.1,0-2-0.3-2.7-0.9c-0.5-0.5-0.8-1.1-1-1.9l6.6-0.9c0.3,0,0.5-0.1,0.6-0.2c0.1-0.1,0.2-0.4,0.2-0.7
			c0-0.9-0.2-1.6-0.6-2.3C257,248.8,256.4,248.3,255.8,247.9z M250.4,252.3c0-1.1,0.3-1.9,0.9-2.5c0.6-0.6,1.3-1,2.2-1
			c0.9,0,1.5,0.3,2,0.8c0.5,0.5,0.8,1.2,0.8,1.9L250.4,252.3z"/>
		<path class="st5" d="M264.6,251.9l-1.5-0.4c-0.5-0.1-0.8-0.3-1.1-0.5c-0.2-0.2-0.3-0.5-0.3-0.8c0-0.4,0.2-0.8,0.6-1
			c0.4-0.2,0.9-0.4,1.5-0.4c0.4,0,0.8,0,1.2,0.1c0.4,0.1,0.7,0.2,0.9,0.3c0.3,0.1,0.5,0.3,0.7,0.4c0.2-0.1,0.3-0.2,0.4-0.3
			c0.1-0.1,0.1-0.3,0.1-0.5c0-0.3-0.1-0.5-0.4-0.7c-0.3-0.2-0.7-0.4-1.2-0.5c-0.5-0.1-1.1-0.2-1.8-0.2c-1.3,0-2.2,0.3-2.8,0.8
			c-0.6,0.6-0.9,1.2-0.9,2c0,0.7,0.2,1.2,0.6,1.7c0.4,0.4,1,0.8,1.9,1l1.8,0.5c0.5,0.1,0.9,0.3,1.1,0.6c0.2,0.3,0.4,0.6,0.4,1
			c0,1-0.7,1.5-2.2,1.5c-0.7,0-1.2-0.1-1.8-0.3c-0.5-0.2-1-0.5-1.3-0.7c-0.2,0.1-0.3,0.2-0.4,0.4c-0.1,0.2-0.1,0.3-0.1,0.5
			c0,0.4,0.3,0.8,1,1.1c0.7,0.3,1.6,0.5,2.7,0.5c1.3,0,2.2-0.3,2.9-0.8c0.7-0.5,1-1.2,1-2.1c0-0.8-0.2-1.4-0.7-1.9
			C266.3,252.5,265.5,252.1,264.6,251.9z"/>
		<path class="st5" d="M277.3,255.6c-0.3,0.2-0.7,0.4-1.1,0.6c-0.4,0.2-0.9,0.2-1.5,0.2c-1,0-1.8-0.3-2.4-1
			c-0.6-0.7-0.9-1.6-0.9-2.8c0-1.2,0.3-2.2,1-2.8c0.6-0.7,1.4-1,2.4-1c0.6,0,1.1,0.1,1.4,0.2c0.4,0.2,0.7,0.3,1,0.6
			c0.2-0.1,0.3-0.2,0.4-0.3c0.1-0.1,0.1-0.3,0.1-0.4c0-0.4-0.3-0.7-0.9-1c-0.6-0.3-1.3-0.4-2.2-0.4c-0.9,0-1.8,0.2-2.6,0.6
			c-0.8,0.4-1.4,1-1.8,1.8c-0.5,0.8-0.7,1.7-0.7,2.9c0,1.2,0.2,2.1,0.7,2.9c0.4,0.8,1.1,1.3,1.8,1.7c0.8,0.4,1.7,0.6,2.6,0.6
			c0.9,0,1.6-0.1,2.2-0.4c0.6-0.3,0.9-0.6,0.9-1c0-0.2,0-0.3-0.1-0.5C277.6,255.8,277.5,255.7,277.3,255.6z"/>
		<path class="st5" d="M286.6,247.9c-0.7-0.4-1.4-0.6-2.3-0.6c-0.7,0-1.3,0.1-1.9,0.4c-0.6,0.2-1.1,0.6-1.5,1s-0.7,1-1,1.6
			c-0.2,0.6-0.4,1.4-0.4,2.2c0,1.1,0.2,2.1,0.7,2.9c0.4,0.8,1.1,1.4,1.9,1.8c0.8,0.4,1.8,0.6,2.9,0.6c0.6,0,1.2-0.1,1.7-0.2
			c0.5-0.1,0.9-0.3,1.2-0.6c0.3-0.2,0.5-0.5,0.5-0.8c0-0.2,0-0.3-0.1-0.5c-0.1-0.1-0.2-0.3-0.4-0.4c-0.3,0.2-0.7,0.4-1.2,0.6
			c-0.5,0.2-1,0.3-1.6,0.3c-1.1,0-2-0.3-2.7-0.9c-0.5-0.5-0.8-1.1-1-1.9l6.6-0.9c0.3,0,0.5-0.1,0.6-0.2c0.1-0.1,0.2-0.4,0.2-0.7
			c0-0.9-0.2-1.6-0.6-2.3C287.8,248.8,287.3,248.3,286.6,247.9z M281.3,252.3c0-1.1,0.3-1.9,0.9-2.5c0.6-0.6,1.3-1,2.2-1
			c0.9,0,1.5,0.3,2,0.8c0.5,0.5,0.8,1.2,0.8,1.9L281.3,252.3z"/>
		<path class="st5" d="M295.7,247.4c-0.8,0-1.5,0.1-2.1,0.3c-0.6,0.2-1.1,0.4-1.5,0.6c-0.3,0.2-0.5,0.4-0.6,0.6
			c-0.1,0.2-0.2,0.5-0.2,0.8v2.3v1v4c0,0.3,0.1,0.5,0.2,0.6c0.2,0.1,0.4,0.2,0.7,0.2c0.2,0,0.3,0,0.5-0.1c0.1,0,0.2-0.1,0.3-0.1
			v-4.6v-0.7v-2.7c0.3-0.2,0.7-0.3,1.2-0.5c0.5-0.1,1.1-0.2,1.7-0.2c0.2,0,0.5,0,0.7,0c0.2,0,0.4,0.1,0.6,0.1
			c0.1-0.1,0.1-0.2,0.2-0.3c0-0.1,0.1-0.3,0.1-0.4C297.4,247.7,296.8,247.4,295.7,247.4z"/>
		<path class="st5" d="M310.2,247.9c-0.7-0.4-1.4-0.6-2.3-0.6c-0.7,0-1.3,0.1-1.9,0.4c-0.6,0.2-1.1,0.6-1.5,1c-0.4,0.4-0.7,1-1,1.6
			c-0.2,0.6-0.4,1.4-0.4,2.2c0,1.1,0.2,2.1,0.7,2.9c0.4,0.8,1.1,1.4,1.9,1.8c0.8,0.4,1.8,0.6,2.9,0.6c0.6,0,1.2-0.1,1.7-0.2
			c0.5-0.1,0.9-0.3,1.2-0.6c0.3-0.2,0.5-0.5,0.5-0.8c0-0.2,0-0.3-0.1-0.5c-0.1-0.1-0.2-0.3-0.4-0.4c-0.3,0.2-0.7,0.4-1.2,0.6
			c-0.5,0.2-1,0.3-1.6,0.3c-1.1,0-2-0.3-2.7-0.9c-0.5-0.5-0.8-1.1-1-1.9l6.6-0.9c0.3,0,0.5-0.1,0.6-0.2c0.1-0.1,0.2-0.4,0.2-0.7
			c0-0.9-0.2-1.6-0.6-2.3C311.3,248.8,310.8,248.3,310.2,247.9z M304.8,252.3c0-1.1,0.3-1.9,0.9-2.5c0.6-0.6,1.3-1,2.2-1
			c0.9,0,1.5,0.3,2,0.8c0.5,0.5,0.8,1.2,0.8,1.9L304.8,252.3z"/>
		<path class="st5" d="M323.1,251.9l-1.5-0.4c-0.5-0.1-0.8-0.3-1.1-0.5c-0.2-0.2-0.3-0.5-0.3-0.8c0-0.4,0.2-0.8,0.6-1
			c0.4-0.2,0.9-0.4,1.5-0.4c0.4,0,0.8,0,1.2,0.1c0.4,0.1,0.7,0.2,0.9,0.3c0.3,0.1,0.5,0.3,0.7,0.4c0.2-0.1,0.3-0.2,0.4-0.3
			c0.1-0.1,0.1-0.3,0.1-0.5c0-0.3-0.1-0.5-0.4-0.7c-0.3-0.2-0.7-0.4-1.2-0.5c-0.5-0.1-1.1-0.2-1.8-0.2c-1.3,0-2.2,0.3-2.8,0.8
			c-0.6,0.6-0.9,1.2-0.9,2c0,0.7,0.2,1.2,0.6,1.7c0.4,0.4,1,0.8,1.9,1l1.8,0.5c0.5,0.1,0.9,0.3,1.1,0.6c0.2,0.3,0.4,0.6,0.4,1
			c0,1-0.7,1.5-2.2,1.5c-0.7,0-1.2-0.1-1.8-0.3c-0.5-0.2-1-0.5-1.3-0.7c-0.2,0.1-0.3,0.2-0.4,0.4c-0.1,0.2-0.1,0.3-0.1,0.5
			c0,0.4,0.3,0.8,1,1.1c0.7,0.3,1.6,0.5,2.7,0.5c1.3,0,2.2-0.3,2.9-0.8c0.7-0.5,1-1.2,1-2.1c0-0.8-0.2-1.4-0.7-1.9
			C324.8,252.5,324.1,252.1,323.1,251.9z"/>
		<path class="st5" d="M335.2,247.9c-0.7-0.4-1.4-0.6-2.3-0.6c-0.7,0-1.3,0.1-1.9,0.4c-0.6,0.2-1.1,0.6-1.5,1s-0.7,1-1,1.6
			c-0.2,0.6-0.4,1.4-0.4,2.2c0,1.1,0.2,2.1,0.7,2.9c0.4,0.8,1.1,1.4,1.9,1.8c0.8,0.4,1.8,0.6,2.9,0.6c0.6,0,1.2-0.1,1.7-0.2
			c0.5-0.1,0.9-0.3,1.2-0.6c0.3-0.2,0.5-0.5,0.5-0.8c0-0.2,0-0.3-0.1-0.5c-0.1-0.1-0.2-0.3-0.4-0.4c-0.3,0.2-0.7,0.4-1.2,0.6
			c-0.5,0.2-1,0.3-1.6,0.3c-1.1,0-2-0.3-2.7-0.9c-0.5-0.5-0.8-1.1-1-1.9l6.6-0.9c0.3,0,0.5-0.1,0.6-0.2c0.1-0.1,0.2-0.4,0.2-0.7
			c0-0.9-0.2-1.6-0.6-2.3C336.4,248.8,335.9,248.3,335.2,247.9z M329.8,252.3c0-1.1,0.3-1.9,0.9-2.5c0.6-0.6,1.3-1,2.2-1
			c0.9,0,1.5,0.3,2,0.8c0.5,0.5,0.8,1.2,0.8,1.9L329.8,252.3z"/>
		<path class="st5" d="M351.6,243.5c-0.2,0-0.3,0-0.5,0.1c-0.1,0-0.3,0.1-0.3,0.1v4.3c-0.2-0.1-0.5-0.3-0.9-0.4
			c-0.5-0.2-1-0.2-1.6-0.2c-0.9,0-1.7,0.2-2.4,0.5c-0.7,0.4-1.3,0.9-1.8,1.7c-0.4,0.8-0.7,1.8-0.7,3c0,1.2,0.2,2.2,0.7,3
			c0.4,0.8,1.1,1.3,1.8,1.7c0.8,0.4,1.7,0.5,2.7,0.5c0.7,0,1.3-0.1,1.8-0.2c0.5-0.2,0.9-0.3,1.2-0.5c0.3-0.2,0.4-0.3,0.6-0.5
			c0.1-0.2,0.2-0.4,0.2-0.7v-6.8v-0.4v-4.3c0-0.3-0.1-0.5-0.2-0.6C352.1,243.6,351.9,243.5,351.6,243.5z M349.9,256.2
			c-0.3,0.1-0.7,0.2-1.2,0.2c-1,0-1.9-0.3-2.5-0.9c-0.6-0.6-0.9-1.5-0.9-2.8c0-1,0.1-1.7,0.4-2.3c0.3-0.6,0.7-1,1.2-1.2
			c0.5-0.2,1-0.4,1.6-0.4c0.6,0,1.1,0.1,1.5,0.3c0.3,0.1,0.5,0.3,0.7,0.4v6.3C350.6,256,350.3,256.1,349.9,256.2z"/>
		<path class="st5" d="M356.7,243.5c-0.3,0-0.6,0.1-0.8,0.3c-0.2,0.2-0.3,0.5-0.3,0.8s0.1,0.6,0.3,0.8c0.2,0.2,0.5,0.3,0.8,0.3
			c0.3,0,0.6-0.1,0.8-0.3c0.2-0.2,0.3-0.5,0.3-0.8s-0.1-0.6-0.3-0.8S357.1,243.5,356.7,243.5z"/>
		<path class="st5" d="M356.7,247.6c-0.2,0-0.3,0-0.5,0.1c-0.1,0-0.3,0.1-0.3,0.1v4.2v0.8v4.1c0,0.3,0.1,0.5,0.2,0.6
			c0.2,0.1,0.4,0.2,0.7,0.2c0.2,0,0.3,0,0.5-0.1c0.1,0,0.2-0.1,0.3-0.1v-4.8v-0.8v-3.5c0-0.3-0.1-0.5-0.2-0.6
			C357.2,247.6,357,247.6,356.7,247.6z"/>
		<path class="st5" d="M368.3,247.5c-0.3,0-0.5,0.1-0.7,0.2c-0.4,1.3-0.8,2.7-1.3,4.1c-0.5,1.4-1,2.8-1.6,4.3h-0.1
			c-0.1-0.3-0.3-0.7-0.4-1.2c-0.2-0.5-0.4-1-0.6-1.5c-0.2-0.5-0.3-0.9-0.4-1.2l-1.3-3.8c-0.1-0.3-0.2-0.5-0.4-0.6
			c-0.1-0.1-0.3-0.2-0.6-0.2c-0.2,0-0.3,0-0.5,0.1c-0.2,0.1-0.3,0.2-0.4,0.3c0.2,0.5,0.4,1.1,0.6,1.8c0.2,0.7,0.5,1.4,0.8,2.2
			c0.3,0.7,0.6,1.5,0.9,2.2c0.3,0.7,0.6,1.3,0.8,1.9c0.2,0.5,0.5,1,0.6,1.3c0.1,0.1,0.2,0.3,0.4,0.3c0.2,0.1,0.4,0.1,0.6,0.1
			c0.2,0,0.4,0,0.6-0.1c0.2,0,0.3-0.1,0.4-0.1c0.3-0.5,0.6-1.2,0.9-1.9s0.6-1.5,0.9-2.2c0.3-0.8,0.6-1.5,0.8-2.2
			c0.3-0.7,0.5-1.3,0.6-1.8c0.2-0.5,0.2-0.9,0.2-1c0-0.2-0.1-0.4-0.2-0.6C368.8,247.5,368.6,247.5,368.3,247.5z"/>
		<path class="st5" d="M377.8,247.9c-0.7-0.4-1.4-0.6-2.3-0.6c-0.7,0-1.3,0.1-1.9,0.4c-0.6,0.2-1.1,0.6-1.5,1s-0.7,1-1,1.6
			c-0.2,0.6-0.4,1.4-0.4,2.2c0,1.1,0.2,2.1,0.7,2.9c0.4,0.8,1.1,1.4,1.9,1.8c0.8,0.4,1.8,0.6,2.9,0.6c0.6,0,1.2-0.1,1.7-0.2
			c0.5-0.1,0.9-0.3,1.2-0.6c0.3-0.2,0.5-0.5,0.5-0.8c0-0.2,0-0.3-0.1-0.5c-0.1-0.1-0.2-0.3-0.4-0.4c-0.3,0.2-0.7,0.4-1.2,0.6
			c-0.5,0.2-1,0.3-1.6,0.3c-1.1,0-2-0.3-2.7-0.9c-0.5-0.5-0.8-1.1-1-1.9l6.6-0.9c0.3,0,0.5-0.1,0.6-0.2c0.1-0.1,0.2-0.4,0.2-0.7
			c0-0.9-0.2-1.6-0.6-2.3C379,248.8,378.5,248.3,377.8,247.9z M372.5,252.3c0-1.1,0.3-1.9,0.9-2.5c0.6-0.6,1.3-1,2.2-1
			c0.9,0,1.5,0.3,2,0.8c0.5,0.5,0.8,1.2,0.8,1.9L372.5,252.3z"/>
		<path class="st5" d="M386.9,247.4c-0.8,0-1.5,0.1-2.1,0.3c-0.6,0.2-1.1,0.4-1.5,0.6c-0.3,0.2-0.5,0.4-0.6,0.6s-0.2,0.5-0.2,0.8
			v2.3v1v4c0,0.3,0.1,0.5,0.2,0.6c0.2,0.1,0.4,0.2,0.7,0.2c0.2,0,0.3,0,0.5-0.1c0.1,0,0.2-0.1,0.3-0.1v-4.6v-0.7v-2.7
			c0.3-0.2,0.7-0.3,1.2-0.5c0.5-0.1,1.1-0.2,1.7-0.2c0.2,0,0.5,0,0.7,0c0.2,0,0.4,0.1,0.6,0.1c0.1-0.1,0.1-0.2,0.2-0.3
			c0-0.1,0.1-0.3,0.1-0.4C388.6,247.7,388,247.4,386.9,247.4z"/>
		<path class="st5" d="M395.7,256c-0.2,0.1-0.4,0.2-0.7,0.3c-0.3,0.1-0.6,0.1-0.8,0.1c-0.6,0-1-0.1-1.3-0.4
			c-0.3-0.2-0.5-0.6-0.5-1.2v-2.3v-0.6v-2.6h3.1c0.2,0,0.4-0.1,0.5-0.2c0.1-0.1,0.2-0.3,0.2-0.5c0-0.1,0-0.3-0.1-0.4
			c0-0.1-0.1-0.2-0.1-0.3h-3.5v-2.5c0-0.3-0.1-0.5-0.2-0.6c-0.1-0.1-0.4-0.2-0.7-0.2c-0.2,0-0.3,0-0.5,0.1c-0.1,0-0.3,0.1-0.3,0.1
			v7.1v0.6v2.4c0,1,0.3,1.8,0.9,2.2c0.6,0.4,1.4,0.7,2.4,0.7c0.7,0,1.2-0.1,1.5-0.3c0.4-0.2,0.6-0.5,0.6-0.8c0-0.2,0-0.3-0.1-0.4
			C395.9,256.2,395.8,256.1,395.7,256z"/>
		<path class="st5" d="M399.5,243.5c-0.3,0-0.6,0.1-0.8,0.3c-0.2,0.2-0.3,0.5-0.3,0.8s0.1,0.6,0.3,0.8c0.2,0.2,0.5,0.3,0.8,0.3
			c0.3,0,0.6-0.1,0.8-0.3c0.2-0.2,0.3-0.5,0.3-0.8s-0.1-0.6-0.3-0.8S399.8,243.5,399.5,243.5z"/>
		<path class="st5" d="M399.5,247.6c-0.2,0-0.3,0-0.5,0.1c-0.1,0-0.3,0.1-0.3,0.1v4.2v0.8v4.1c0,0.3,0.1,0.5,0.2,0.6
			c0.2,0.1,0.4,0.2,0.7,0.2c0.2,0,0.3,0,0.5-0.1c0.1,0,0.2-0.1,0.3-0.1v-4.8v-0.8v-3.5c0-0.3-0.1-0.5-0.2-0.6
			C400,247.6,399.8,247.6,399.5,247.6z"/>
		<path class="st5" d="M408.1,247.4c-0.8,0-1.5,0.1-2.1,0.3c-0.6,0.2-1.1,0.4-1.5,0.6c-0.3,0.2-0.5,0.4-0.6,0.6s-0.2,0.5-0.2,0.8
			v2.3v1v4c0,0.3,0.1,0.5,0.2,0.6c0.2,0.1,0.4,0.2,0.7,0.2c0.2,0,0.3,0,0.5-0.1c0.1,0,0.2-0.1,0.3-0.1v-4.6v-0.7v-2.7
			c0.3-0.2,0.7-0.3,1.2-0.5c0.5-0.1,1.1-0.2,1.7-0.2c0.2,0,0.5,0,0.7,0c0.2,0,0.4,0.1,0.6,0.1c0.1-0.1,0.1-0.2,0.2-0.3
			c0-0.1,0.1-0.3,0.1-0.4C409.8,247.7,409.3,247.4,408.1,247.4z"/>
	</g>
	<g>
		<g>
			<path class="st3" d="M362.2,189.6h12.2v-14.3c0-4,3.3-7.3,7.3-7.3h1.3c4,0,7.3,3.3,7.3,7.3v14.3h12.2c4,0,7.3,3.3,7.3,7.3v0
				c0,4-3.3,7.3-7.3,7.3h-12.2v14.3c0,4-3.3,7.3-7.3,7.3h-1.3c-4,0-7.3-3.3-7.3-7.3v-14.3h-12.2c-4,0-7.3-3.3-7.3-7.3v0
				C354.9,192.9,358.2,189.6,362.2,189.6z"/>
		</g>
		<g>
			<path class="st5" d="M45.9,208.9c-1.4-4.1-2.9-8.5-4.5-13c-1.6-4.5-3.1-8.8-4.7-12.9c-1.5-4.1-3-7.9-4.3-11.1
				c-0.4-1.1-1.3-2.4-3.5-3.2c-2.4-0.8-5-0.8-7.4-0.2c-1.1,0.3-1.9,0.6-2.5,0.9l-0.9,0.4l-0.4,0.9c-1.1,2.7-2.2,5.7-3.5,9
				c-1.2,3.3-2.5,6.6-3.8,10c-1.3,3.3-2.5,6.7-3.7,10.1c-1.2,3.3-2.3,6.3-3.2,9c-1,2.8-1.8,5.1-2.5,7c-0.2,0.7-0.4,1.3-0.6,1.8
				c-0.2,0.8-0.4,1.6-0.4,2.3c0,1.9,0.8,3.4,2.1,4.4c1.1,0.8,2.4,1.1,3.8,1.1c0.8,0,1.5-0.1,2-0.2c0.6-0.1,1.2-0.3,1.7-0.5l1.1-0.5
				l0.3-1.1c0.3-0.9,0.7-2,1.2-3.4c0.5-1.4,1-3,1.6-4.7c0.5-1.4,0.9-2.7,1.3-4h19l3.2,9.5c0.5,1.6,1.3,2.7,2.2,3.5
				c1,0.9,2.4,1.3,4.1,1.3c1.2,0,2.2-0.2,3.2-0.7c1-0.5,1.8-1.1,2.5-1.9l0.8-1l-0.4-1.3C48.6,217,47.3,213.1,45.9,208.9z
				 M20.6,195.6c1.2-3.4,2.4-6.8,3.5-10.1c0.3-0.8,0.5-1.5,0.8-2.2c0.1,0.4,0.3,0.7,0.4,1.1c1,3,2.2,6.2,3.4,9.7
				c0.7,2.1,1.4,4.2,2.1,6.3H18.9C19.4,198.9,20,197.3,20.6,195.6z"/>
			<path class="st5" d="M82.9,182.1c-3.3-1.6-7.1-2.4-11.1-2.4c-2.9,0-5.6,0.4-8,1.2c-2.2,0.8-4.2,1.6-5.9,2.5c-1.6,1-2.7,1.9-3.3,3
				c-0.6,1.1-0.9,2.4-0.9,4v44.5c0,2.3,1,3.6,1.8,4.3c1.1,0.9,2.5,1.3,4.3,1.3c0.9,0,1.7-0.1,2.5-0.3c0.7-0.2,1.2-0.3,1.6-0.5
				l1.6-0.6v-14.4c2.3,0.7,4.8,1.1,7.4,1.1c4.1,0,7.8-0.9,11-2.6c3.3-1.8,5.9-4.4,7.7-7.9c1.8-3.4,2.7-7.7,2.7-12.7
				c0-5.2-1-9.6-3-12.9C89.1,186.3,86.4,183.7,82.9,182.1z M65.4,191.7c0.7-0.3,1.4-0.6,2.1-0.9c1.1-0.4,2.6-0.6,4.3-0.6
				c1.9,0,3.7,0.4,5.4,1.2c1.5,0.7,2.7,1.9,3.7,3.6c1,1.8,1.5,4.3,1.5,7.6c0,4.6-1,7.8-2.8,9.7c-1.9,1.9-4.4,2.8-7.7,2.8
				c-2,0-3.8-0.3-5.1-1c-0.5-0.2-0.9-0.4-1.3-0.7V191.7z"/>
			<path class="st5" d="M119.6,179.7c-3.3,0-6.4,0.4-9.1,1.1c-2.8,0.8-5,1.7-6.7,2.8c-1.4,0.9-2.5,1.9-3.2,3
				c-0.7,1.2-1.1,2.6-1.1,4.4v28.5c0,2.3,1,3.6,1.9,4.3c1.1,0.8,2.5,1.2,4.2,1.2c0.9,0,1.7-0.1,2.5-0.3c0.7-0.2,1.2-0.3,1.6-0.5
				l1.6-0.6v-31.6c0.9-0.4,1.9-0.7,3-1c1.7-0.5,3.8-0.7,6.2-0.7c0.8,0,1.6,0,2.4,0.1c0.8,0.1,1.5,0.2,2,0.3l1.5,0.3l1-1.1
				c0.5-0.6,0.8-1.2,1.1-2c0.3-0.7,0.4-1.5,0.4-2.4C128.9,183.4,127.7,179.7,119.6,179.7z"/>
			<path class="st5" d="M160.2,182.2c-3-1.7-6.4-2.5-10.3-2.5c-3,0-5.8,0.5-8.4,1.6c-2.6,1.1-4.9,2.6-6.8,4.6
				c-1.9,2-3.4,4.4-4.4,7.2c-1,2.8-1.5,5.9-1.5,9.4c0,4.9,1,9.1,2.9,12.6c2,3.6,4.8,6.3,8.4,8.1c3.5,1.7,7.7,2.6,12.3,2.6
				c2.7,0,5.2-0.3,7.4-0.9c2.3-0.6,4.2-1.5,5.6-2.7c2.3-1.8,2.8-3.7,2.8-5c0-1.2-0.3-2.3-1-3.2c-0.6-0.8-1.3-1.5-2.2-2.1l-1.5-1
				l-1.4,1.1c-0.9,0.7-2.3,1.5-3.9,2.2c-1.6,0.7-3.4,1-5.4,1c-3.8,0-6.7-0.9-8.8-2.8c-1.1-1-1.9-2.2-2.5-3.6l23-3.2
				c1.6-0.2,2.8-0.7,3.8-1.6c1.1-1,1.6-2.5,1.6-4.5c0-3.8-0.9-7.2-2.6-10.2C165.6,186.3,163.2,183.9,160.2,182.2z M143.1,193.1
				c1.8-2,4-2.9,6.8-2.9c2.7,0,4.7,0.7,6.1,2.2c1,1.1,1.7,2.3,2.1,3.8l-17.5,2.4C141,196.3,141.8,194.4,143.1,193.1z"/>
			<path class="st5" d="M207.9,183.7c-3.4-2.7-8-4-13.6-4c-3.3,0-6.3,0.4-8.9,1.3c-2.6,0.8-4.7,1.7-6.4,2.7c-1.5,0.9-2.6,1.9-3.3,3
				c-0.7,1.2-1.1,2.6-1.1,4.2v28.7c0,2.3,1,3.6,1.9,4.3c1.1,0.8,2.5,1.2,4.2,1.2c0.9,0,1.7-0.1,2.5-0.3c0.7-0.2,1.2-0.3,1.6-0.5
				l1.6-0.6V192c0.8-0.4,1.7-0.7,2.7-1.1c1.5-0.5,3.2-0.7,5.2-0.7c2.4,0,4.2,0.5,5.5,1.6c1.2,1,1.7,2.6,1.7,5v22.7
				c0,2.3,1,3.6,1.8,4.3c1.1,0.9,2.5,1.3,4.3,1.3c0.8,0,1.6-0.1,2.4-0.3c0.7-0.2,1.3-0.3,1.6-0.5l1.6-0.6v-27.2
				C213.3,190.8,211.5,186.5,207.9,183.7z"/>
			<path class="st5" d="M257.4,165.8c-1.1-0.9-2.5-1.3-4.3-1.3c-0.8,0-1.6,0.1-2.4,0.3c-0.7,0.2-1.3,0.3-1.7,0.5l-1.6,0.6v14.8
				c0,0-0.1,0-0.1,0c-2.2-0.7-4.5-1-7-1c-3.8,0-7.5,0.8-10.7,2.4c-3.4,1.7-6.1,4.2-8,7.7c-1.9,3.4-2.9,7.8-2.9,13.1
				c0,5.2,1,9.5,2.9,12.9c2,3.4,4.8,6,8.4,7.6c3.4,1.5,7.3,2.3,11.7,2.3c2.9,0,5.6-0.4,7.9-1.1c2.3-0.7,4.1-1.5,5.4-2.3
				c1.3-0.8,2.3-1.6,2.9-2.5c0.8-1.1,1.2-2.4,1.2-4.1v-45.7C259.2,167.8,258.2,166.5,257.4,165.8z M246,191.2c0.5,0.2,1,0.5,1.4,0.7
				V214c-0.5,0.2-1.1,0.5-1.7,0.7c-1,0.3-2.4,0.5-4,0.5c-3.5,0-6.1-0.9-8.1-2.8c-1.9-1.8-2.9-5-2.9-9.3c0-3.3,0.5-6,1.5-7.8
				c0.9-1.8,2.1-3,3.6-3.8c1.6-0.8,3.4-1.2,5.3-1.2C243,190.3,244.7,190.6,246,191.2z"/>
			<path class="st5" d="M296.3,182.2c-3-1.7-6.4-2.5-10.3-2.5c-3,0-5.8,0.5-8.4,1.6c-2.6,1.1-4.9,2.6-6.8,4.6
				c-1.9,2-3.4,4.4-4.4,7.2c-1,2.8-1.5,5.9-1.5,9.4c0,4.9,1,9.1,2.9,12.6c2,3.6,4.8,6.3,8.4,8.1c3.5,1.7,7.7,2.6,12.3,2.6
				c2.7,0,5.2-0.3,7.4-0.9c2.3-0.6,4.2-1.5,5.6-2.7c2.3-1.8,2.8-3.7,2.8-5c0-1.2-0.3-2.3-1-3.2c-0.6-0.8-1.3-1.5-2.2-2.1l-1.5-1
				l-1.4,1.1c-0.9,0.7-2.3,1.5-3.9,2.2c-1.6,0.7-3.4,1-5.4,1c-3.8,0-6.7-0.9-8.8-2.8c-1.1-1-1.9-2.2-2.5-3.6l23-3.2
				c1.6-0.2,2.8-0.7,3.8-1.6c1.1-1,1.6-2.5,1.6-4.5c0-3.8-0.9-7.2-2.6-10.2C301.6,186.3,299.3,183.9,296.3,182.2z M279.1,193.1
				c1.8-2,4-2.9,6.8-2.9c2.7,0,4.7,0.7,6.1,2.2c1,1.1,1.7,2.3,2.1,3.8l-17.5,2.4C277.1,196.3,277.9,194.4,279.1,193.1z"/>
			<path class="st5" d="M330.7,179.7c-3.3,0-6.4,0.4-9.1,1.1c-2.8,0.8-5,1.7-6.7,2.8c-1.4,0.9-2.5,1.9-3.2,3
				c-0.7,1.2-1.1,2.6-1.1,4.4v28.5c0,2.3,1,3.6,1.9,4.3c1.1,0.8,2.5,1.2,4.2,1.2c0.9,0,1.7-0.1,2.5-0.3c0.7-0.2,1.2-0.3,1.6-0.5
				l1.6-0.6v-31.6c0.9-0.4,1.9-0.7,3-1c1.7-0.5,3.8-0.7,6.2-0.7c0.8,0,1.6,0,2.4,0.1c0.8,0.1,1.5,0.2,2,0.3l1.5,0.3l1-1.1
				c0.5-0.6,0.8-1.2,1.1-2c0.3-0.7,0.4-1.5,0.4-2.4C339.9,183.4,338.7,179.7,330.7,179.7z"/>
		</g>
	</g>
	<g>
		<g>
			<path class="st5" d="M205.5,132.3l-3.1-2.3c-7.5-5.6-16.8-8.7-26.2-8.7h-47.4c-6.8,0-12.3-5.5-12.3-12.3V13.4
				c0-6.8,5.5-12.3,12.3-12.3h47.7c10.2,0,20.2,3.2,28.5,9.1c9-5.9,19.5-9.1,30.4-9.1h45.7c6.8,0,12.3,5.5,12.3,12.3V109
				c0,6.8-5.5,12.3-12.3,12.3h-46.4c-9.6,0-19.1,3.3-26.8,9.2L205.5,132.3z M128.8,9.1c-2.4,0-4.3,1.9-4.3,4.3V109
				c0,2.4,1.9,4.3,4.3,4.3h47.4c10.4,0,20.7,3.2,29.2,9.1c8.6-5.9,18.8-9.1,29.2-9.1h46.4c2.4,0,4.3-1.9,4.3-4.3V13.4
				c0-2.4-1.9-4.3-4.3-4.3h-45.7c-10.2,0-19.9,3.2-28.1,9.2l-2.5,1.8l-2.4-1.9c-7.3-5.9-16.5-9.1-25.9-9.1H128.8z"/>
		</g>
		<g>
			<path class="st2" d="M197.5,0.6L197.5,0.6C194.7-1.1,191,1,191,4.3v44.6v70l0,21.5c0,1.5,0.7,3,2.1,3.7c0.6,0.3,1.3,0.5,1.9,0.5
				c0.9,0,1.8-0.3,2.5-0.9l7.3-5.9c0.4-0.3,0.9-0.3,1.3,0l7.1,5.8c0.9,0.8,2.1,1.2,3.3,0.9c2-0.4,3.3-2,3.3-3.9v-21.7v-70V4.4
				c0-3.1-3.2-5.2-6-4c-0.5,0.2-1.1,0.5-1.6,0.7C207.5,3.4,202,3.2,197.5,0.6z"/>
		</g>
		<g>
			<path class="st3" d="M239.8,55.1c-3.4,0-6.1,2.7-6.1,6.1s2.7,6.1,6.1,6.1s6.1-2.7,6.1-6.1S243.2,55.1,239.8,55.1z"/>
			<path class="st3" d="M265.4,55.1c-3.4,0-6.1,2.7-6.1,6.1s2.7,6.1,6.1,6.1s6.1-2.7,6.1-6.1S268.8,55.1,265.4,55.1z"/>
			<path class="st3" d="M252.6,67.5c-3.4,0-6.1,2.7-6.1,6.1s2.7,6.1,6.1,6.1s6.1-2.7,6.1-6.1S256,67.5,252.6,67.5z"/>
			<path class="st3" d="M252.6,42.7c-3.4,0-6.1,2.7-6.1,6.1s2.7,6.1,6.1,6.1s6.1-2.7,6.1-6.1S256,42.7,252.6,42.7z"/>
		</g>
		<path class="st3" d="M172.3,56.9H162V46.6c0-2.3-1.9-4.3-4.3-4.3c-2.3,0-4.3,1.9-4.3,4.3v10.3h-10.3c-2.3,0-4.3,1.9-4.3,4.3
			c0,2.3,1.9,4.3,4.3,4.3h10.3v10.3c0,2.3,1.9,4.3,4.3,4.3c2.3,0,4.3-1.9,4.3-4.3V65.5h10.3c2.3,0,4.3-1.9,4.3-4.3
			C176.6,58.9,174.7,56.9,172.3,56.9z"/>
	</g>
</g>
</svg>
