<?xml version="1.0" encoding="utf-8"?>
<!-- Generator: Adobe Illustrator 28.0.0, SVG Export Plug-In . SVG Version: 6.00 Build 0)  -->
<svg version="1.1" id="Camada_1" xmlns="http://www.w3.org/2000/svg" xmlns:xlink="http://www.w3.org/1999/xlink" x="0px" y="0px"
	 viewBox="0 0 176.9 176.9" style="enable-background:new 0 0 176.9 176.9;" xml:space="preserve">
<style type="text/css">
	.st0{fill:#5B00FB;}
	.st1{fill:#FFFFFF;}
</style>
<path class="st0" d="M146.9,176.9H30c-16.6,0-30-13.4-30-30V30C0,13.4,13.4,0,30,0h116.9c16.6,0,30,13.4,30,30v116.9
	C176.9,163.5,163.5,176.9,146.9,176.9z"/>
<g>
	<g>
		<path class="st1" d="M88.8,123.6l-1.8-1.3c-4.4-3.3-9.8-5.1-15.3-5.1H43.9c-4,0-7.2-3.2-7.2-7.2V54c0-4,3.2-7.2,7.2-7.2h27.9
			c6,0,11.8,1.9,16.7,5.3c5.3-3.5,11.4-5.3,17.8-5.3H133c4,0,7.2,3.2,7.2,7.2v55.9c0,4-3.2,7.2-7.2,7.2h-27.1
			c-5.6,0-11.2,1.9-15.7,5.4L88.8,123.6z M43.9,51.5c-1.4,0-2.5,1.2-2.5,2.5v55.9c0,1.4,1.1,2.5,2.5,2.5h27.7
			c6.1,0,12.1,1.9,17.1,5.3c5-3.5,11-5.3,17.1-5.3h27.1c1.4,0,2.5-1.1,2.5-2.5V54c0-1.4-1.1-2.5-2.5-2.5h-26.7
			c-6,0-11.6,1.9-16.4,5.4l-1.5,1.1L87,56.8c-4.3-3.4-9.7-5.3-15.2-5.3H43.9z"/>
	</g>
	<g>
		<path class="st1" d="M84.1,46.5L84.1,46.5c-1.7-1-3.8,0.2-3.8,2.2v26.1v41v12.6c0,0.9,0.4,1.8,1.2,2.2c0.4,0.2,0.8,0.3,1.1,0.3
			c0.5,0,1.1-0.2,1.5-0.5l4.3-3.5c0.2-0.2,0.5-0.2,0.8,0l4.2,3.4c0.5,0.5,1.2,0.7,1.9,0.5c1.2-0.2,1.9-1.2,1.9-2.3v-12.7v-41v-26
			c0-1.8-1.9-3-3.5-2.3c-0.3,0.1-0.6,0.3-0.9,0.4C89.9,48.1,86.8,48,84.1,46.5z"/>
	</g>
	<g>
		<path class="st1" d="M108.8,78.4c-2,0-3.6,1.6-3.6,3.6c0,2,1.6,3.6,3.6,3.6c2,0,3.6-1.6,3.6-3.6C112.4,80,110.8,78.4,108.8,78.4z"
			/>
		<path class="st1" d="M123.9,78.4c-2,0-3.6,1.6-3.6,3.6c0,2,1.6,3.6,3.6,3.6s3.6-1.6,3.6-3.6C127.4,80,125.8,78.4,123.9,78.4z"/>
		<path class="st1" d="M116.3,85.6c-2,0-3.6,1.6-3.6,3.6c0,2,1.6,3.6,3.6,3.6c2,0,3.6-1.6,3.6-3.6C119.9,87.2,118.3,85.6,116.3,85.6
			z"/>
		<path class="st1" d="M116.3,71.1c-2,0-3.6,1.6-3.6,3.6c0,2,1.6,3.6,3.6,3.6c2,0,3.6-1.6,3.6-3.6C119.9,72.7,118.3,71.1,116.3,71.1
			z"/>
	</g>
	<path class="st1" d="M69.4,79.4h-6.1v-6c0-1.3-1.1-2.5-2.5-2.5c-1.3,0-2.5,1.1-2.5,2.5v6h-6c-1.3,0-2.5,1.1-2.5,2.5
		c0,1.3,1.1,2.5,2.5,2.5h6v6c0,1.3,1.1,2.5,2.5,2.5c1.3,0,2.5-1.1,2.5-2.5v-6h6c1.3,0,2.5-1.1,2.5-2.5
		C71.9,80.6,70.8,79.4,69.4,79.4z"/>
</g>
</svg>
